<?xml version="1.0" encoding="UTF-8" standalone="no"?>
<!-- Created with Inkscape (http://www.inkscape.org/) -->

<svg
   width="83.595802mm"
   height="96.528mm"
   viewBox="0 0 83.595802 96.528"
   version="1.1"
   id="svg5"
   inkscape:version="1.2.1 (9c6d41e410, 2022-07-14)"
   sodipodi:docname="Icon idears.svg"
   inkscape:export-filename="..\..\..\..\..\Desktop\Icon idears.jpg"
   inkscape:export-xdpi="500"
   inkscape:export-ydpi="500"
   xmlns:inkscape="http://www.inkscape.org/namespaces/inkscape"
   xmlns:sodipodi="http://sodipodi.sourceforge.net/DTD/sodipodi-0.dtd"
   xmlns="http://www.w3.org/2000/svg"
   xmlns:svg="http://www.w3.org/2000/svg">
  <sodipodi:namedview
     id="namedview7"
     pagecolor="#ffffff"
     bordercolor="#999999"
     borderopacity="1"
     inkscape:showpageshadow="0"
     inkscape:pageopacity="0"
     inkscape:pagecheckerboard="0"
     inkscape:deskcolor="#d1d1d1"
     inkscape:document-units="mm"
     showgrid="false"
     inkscape:zoom="1.6819304"
     inkscape:cx="153.09789"
     inkscape:cy="222.95809"
     inkscape:window-width="1920"
     inkscape:window-height="1057"
     inkscape:window-x="1912"
     inkscape:window-y="-8"
     inkscape:window-maximized="1"
     inkscape:current-layer="g12669"
     showguides="true" />
  <defs
     id="defs2">
    <inkscape:path-effect
       effect="lattice2"
       gridpoint0="62.837395,544.70618"
       gridpoint1="146.4332,544.70618"
       gridpoint2="62.837395,641.23418"
       gridpoint3="146.4332,641.23418"
       gridpoint4="83.736346,544.70618"
       gridpoint5="125.53425,544.70618"
       gridpoint6="83.736346,641.23418"
       gridpoint7="125.53425,641.23418"
       gridpoint8x9="104.6353,544.70618"
       gridpoint10x11="104.6353,641.23418"
       gridpoint12="62.837395,568.83818"
       gridpoint13="146.4332,568.83818"
       gridpoint14="62.837395,617.10218"
       gridpoint15="146.4332,617.10218"
       gridpoint16="83.736346,568.83818"
       gridpoint17="125.53425,568.83818"
       gridpoint18="83.736346,617.10218"
       gridpoint19="125.53425,617.10218"
       gridpoint20x21="104.6353,568.83818"
       gridpoint22x23="104.6353,617.10218"
       gridpoint24x26="62.837395,592.97018"
       gridpoint25x27="146.4332,592.97018"
       gridpoint28x30="83.736346,592.97018"
       gridpoint29x31="125.53425,592.97018"
       gridpoint32x33x34x35="104.6353,592.97018"
       id="path-effect15171"
       is_visible="true"
       lpeversion="1"
       horizontal_mirror="false"
       vertical_mirror="false"
       perimetral="false"
       live_update="true" />
    <inkscape:path-effect
       effect="construct_grid"
       id="path-effect7791"
       is_visible="true"
       lpeversion="1"
       nr_x="5"
       nr_y="5" />
    <inkscape:path-effect
       effect="fillet_chamfer"
       id="path-effect7789"
       is_visible="true"
       lpeversion="1"
       nodesatellites_param="F,1,0,1,1,0.05,0,3 @ F,1,0,1,1,0.05,0,3 @ F,1,0,1,1,0.05,0,3 @ F,1,0,1,1,0.05,0,3 @ F,1,0,1,1,0.05,0,3 @ F,1,0,1,1,0.05,0,3 @ F,1,0,1,1,0.05,0,3 @ F,1,0,1,1,0.05,0,3 @ F,1,0,1,1,0.05,0,3 @ F,1,0,1,1,0.05,0,3 @ F,1,0,1,1,0.05,0,3 @ F,1,0,1,1,0.05,0,3 @ F,1,0,1,1,0.05,0,3 @ F,1,0,1,1,0.05,0,3 @ F,1,0,1,1,0.05,0,3 @ F,1,0,1,1,0.05,0,3 @ F,1,0,1,1,0.05,0,3 @ F,1,0,1,1,0.05,0,3 | F,1,0,1,1,0.05,0,3 @ F,1,0,1,1,0.05,0,3 @ F,1,0,1,1,0.05,0,3 @ F,1,0,1,1,0.05,0,3 @ F,1,0,1,1,0.05,0,3 @ F,1,0,1,1,0.05,0,3 @ F,1,0,1,1,0.05,0,3 @ F,1,0,1,1,0.05,0,3 @ F,1,0,1,1,0.05,0,3 @ F,1,0,1,1,0.05,0,3 @ F,1,0,1,1,0.05,0,3 @ F,1,0,1,1,0.05,0,3 @ F,1,0,1,1,0.05,0,3 @ F,1,0,1,1,0.05,0,3 | F,1,0,1,1,0.05,0,3 @ F,1,0,1,1,0.05,0,3 @ F,1,0,1,1,0.05,0,3 @ F,1,0,1,1,0.05,0,3 @ F,1,0,1,1,0.05,0,3"
       unit="px"
       method="arc"
       mode="F"
       radius="5"
       chamfer_steps="3"
       flexible="true"
       use_knot_distance="true"
       apply_no_radius="true"
       apply_with_radius="true"
       only_selected="false"
       hide_knots="true" />
  </defs>
  <g
     inkscape:label="Ebene 1"
     inkscape:groupmode="layer"
     id="layer1"
     transform="translate(-48.994175,-528.1887)">
    <path
       id="path1514-8"
       style="fill:#000000;fill-opacity:0.995526;fill-rule:evenodd;stroke-width:0.826;stroke-linecap:round;stroke-linejoin:round;paint-order:stroke fill markers"
       d="m 291.23394,42.345954 -41.79797,24.131861 v 48.264235 l 41.79797,24.13186 41.79745,-24.13186 V 66.477815 Z"
       sodipodi:nodetypes="ccccccc" />
    <path
       id="path1514-8-9"
       style="fill:#000000;fill-opacity:0.995526;fill-rule:evenodd;stroke-width:0.826;stroke-linecap:round;stroke-linejoin:round;paint-order:stroke fill markers"
       d="m 876.50951,465.05023 -41.79797,24.13186 v 48.26424 l 41.79797,24.13186 41.79745,-24.13186 v -48.26424 z"
       sodipodi:nodetypes="ccccccc" />
    <path
       id="path1514-8-9-0"
       style="fill:#000000;fill-opacity:0.995526;fill-rule:evenodd;stroke-width:0.826;stroke-linecap:round;stroke-linejoin:round;paint-order:stroke fill markers"
       d="m 973.27303,811.9034 -41.79797,24.13186 v 48.26423 l 41.79797,24.13181 41.79747,-24.13181 v -48.26423 z"
       sodipodi:nodetypes="ccccccc" />
    <path
       id="path1514-8-9-9"
       style="fill:#333333;fill-opacity:0.995526;fill-rule:evenodd;stroke-width:0.826;stroke-linecap:round;stroke-linejoin:round;paint-order:stroke fill markers"
       d="m 988.82815,718.30415 -13.06225,7.54165 v 12.06593 51.28008 l -7.83777,-4.52479 v -54.29634 l -10.44794,6.03262 -10.45001,6.03271 v 48.26423 l 26.12451,15.0828 15.67346,9.04906 h 5.2e-4 l 13.06123,-7.54114 v -35.49809 h 28.7357 v -29.35686 l -26.1224,-15.08177 h -10e-4 l 5e-4,-5.2e-4 z m 13.06175,25.64029 7.8377,4.52479 v 12.87415 h -7.8377 z"
       sodipodi:nodetypes="ccccccccccccccccccccccccc" />
    <path
       id="path1514-9-6-8"
       style="fill:#ff0000;fill-opacity:0.588608;fill-rule:evenodd;stroke-width:0.826;stroke-linecap:round;stroke-linejoin:round;paint-order:stroke fill markers"
       d="m -84.031438,153.91147 39.185204,22.62343 v 48.26424 l -39.185204,22.62342 z"
       sodipodi:nodetypes="ccccc" />
    <path
       id="path1514"
       style="fill:#ff0000;fill-opacity:0.588608;fill-rule:evenodd;stroke-width:0.826;stroke-linecap:round;stroke-linejoin:round;paint-order:stroke fill markers"
       d="M 68.587028,25.671301 26.789062,49.803162 V 98.067399 L 68.587028,122.19926 110.38448,98.067399 V 49.803162 Z"
       sodipodi:nodetypes="ccccccc" />
    <path
       id="path1514-4"
       style="fill:#666666;fill-opacity:0.588608;fill-rule:evenodd;stroke-width:0.826;stroke-linecap:round;stroke-linejoin:round;paint-order:stroke fill markers"
       d="m 68.58703,25.671302 -41.79797,24.13186 v 48.26424 l 41.79797,24.131858 41.79745,-24.131858 v -48.26424 z m 0,12.06645 31.34795,18.09863 v 36.19831 L 68.58703,110.13333 37.23855,92.034692 v -36.19831 z" />
    <path
       id="path1514-9"
       style="fill:#ff0000;fill-opacity:0.588608;fill-rule:evenodd;stroke-width:0.826;stroke-linecap:round;stroke-linejoin:round;paint-order:stroke fill markers"
       d="M 73.916935,162.36528 34.73173,184.98871 v 48.26424 l 39.185205,22.62342 z m 5.225004,0 v 93.51109 l 39.185201,-22.62342 v -48.26424 z" />
    <path
       id="path1514-9-6"
       style="fill:#4d4d4d;fill-opacity:0.588608;fill-rule:evenodd;stroke-width:0.826;stroke-linecap:round;stroke-linejoin:round;paint-order:stroke fill markers"
       d="m 71.19927,27.179737 v 93.511083 l 10.44949,-6.0327 V 79.160022 h 28.73572 V 49.803162 Z M 81.64876,45.27889 99.93499,55.836386 V 68.710532 H 81.64876 Z"
       sodipodi:nodetypes="cccccccccccc" />
    <path
       id="rect1568"
       style="fill:#ff0000;fill-opacity:0.588608;fill-rule:evenodd;stroke-width:0.826;stroke-linecap:round;stroke-linejoin:round;paint-order:stroke fill markers"
       d="M -79.106192,63.374 -37.308365,39.242014 V 135.76996 L -79.106192,111.63797 Z"
       sodipodi:nodetypes="ccccc" />
    <path
       id="rect1798-2-5"
       style="fill:#008000;fill-opacity:0.588608;fill-rule:evenodd;stroke-width:0.826;stroke-linecap:round;stroke-linejoin:round;paint-order:stroke fill markers"
       d="m 157.27189,168.35801 h 10.44949 v 42.23153 h -10.44949 z" />
    <path
       id="path1514-9-6-2"
       style="fill:#4d4d4d;fill-opacity:0.588608;fill-rule:evenodd;stroke-width:0.826;stroke-linecap:round;stroke-linejoin:round;paint-order:stroke fill markers"
       d="m 65.974262,27.17973 -10.44949,6.03323 v 69.37871 L 37.238552,92.03417 V 43.77045 l -10.44949,6.03271 v 48.264239 l 39.1852,22.623421 z"
       sodipodi:nodetypes="ccccccccc" />
    <path
       id="path1514-4-1"
       style="fill:#ffffff;fill-opacity:1;fill-rule:evenodd;stroke-width:0.826;stroke-linecap:round;stroke-linejoin:round;paint-order:stroke fill markers"
       d="m 291.2339,42.345736 -13.06225,7.541658 v 12.06593 42.231536 12.06541 l -2.61173,1.50792 -15.67449,-9.04958 V 98.390894 72.510819 60.444889 l -10.44949,6.032707 v 48.264234 l 26.12398,15.0828 13.06122,-7.54114 V 55.920618 l 2.61276,-1.508435 10.45001,-6.033224 z m 15.67502,9.050093 -13.06226,7.541659 -5.1e-4,-0.001 v 66.363392 l -2.61225,1.50791 -10.44897,6.03323 10.44897,6.0327 13.06174,-7.54114 V 119.26662 95.83446 h 18.28622 10.44949 V 66.477596 Z m 0,12.066447 15.67294,9.048543 v 12.87415 H 304.29564 V 64.970711 Z" />
    <path
       id="path729"
       style="fill:#4d4d4d;fill-opacity:1;fill-rule:evenodd;stroke-width:0.826;stroke-linecap:round;stroke-linejoin:round;paint-order:stroke fill markers"
       d="m 1007.7757,564.6131 -13.06176,7.54166 v 12.06593 51.28008 l -7.83777,-4.52479 v -48.26372 h -10.44845 l -10.4495,6.0327 v 48.26424 l 26.12347,15.0828 h 0.001 l -5.22449,3.01635 10.44897,6.03271 h 10.44903 l 13.0617,-7.54114 v -35.49809 h 28.7357 v -29.35687 l -26.1229,-15.08176 h -10e-4 l 5.2255,-3.01687 -10.45,-6.03323 z m 13.0622,25.6403 7.8373,4.52479 v 12.87415 h -7.8373 z" />
    <path
       id="path1514-4-1-0"
       style="fill:#ffffff;fill-opacity:1;fill-rule:evenodd;stroke-width:0.826;stroke-linecap:round;stroke-linejoin:round;paint-order:stroke fill markers"
       d="m 309.02299,221.36423 -13.06225,7.54166 v 12.06593 42.23153 12.06541 l -2.61173,1.50792 -15.67449,-9.04958 v -10.31771 -25.88007 -12.06593 l -10.44949,6.0327 v 48.26423 l 26.12398,15.0828 13.06122,-7.54114 v -66.36286 l 2.61276,-1.50844 10.45001,-6.03322 z m 15.67502,9.0501 -13.06226,7.54166 -5.1e-4,-0.001 v 66.36338 l -2.61225,1.50791 -10.44897,6.03323 10.44897,6.0327 13.06174,-7.54114 v -12.06596 -23.43215 h 18.28622 10.44949 v -29.35687 z m 0,12.06644 15.67294,9.04855 v 12.87415 h -18.28622 v -20.41426 z" />
    <path
       id="path1514-4-1-1"
       style="fill:#4d4d4d;fill-opacity:1;fill-rule:evenodd;stroke-width:0.826;stroke-linecap:round;stroke-linejoin:round;paint-order:stroke fill markers"
       d="m 298.57351,221.36427 -13.06226,7.54165 v 12.06593 42.23154 9.04802 l 7.83777,4.52531 2.61173,-1.50792 v -12.06541 -42.23154 -12.06593 l 13.06225,-7.54165 z m 20.8995,6.03322 -10.45001,6.03322 -2.61276,1.50844 v 66.36287 l -13.06122,7.54114 -5.22449,3.01636 10.44898,6.0327 H 309.023 l -10.44898,-6.0327 10.44898,-6.03323 2.61224,-1.50791 v -66.3634 l 5.2e-4,0.001 13.06225,-7.54166 h -10.44949 z m -26.12399,81.44567 -26.12399,-15.0828 v -48.26423 l 10.44949,-6.03271 h -10.44949 l -10.44949,6.03271 v 48.26423 l 26.12399,15.0828 z m 31.34899,-66.36235 -2.61328,1.50843 v 3.01584 l 7.83673,4.52427 v 12.87415 h 10.4495 v -12.87415 z" />
    <path
       id="rect2168"
       style="fill:#4d4d4d;fill-opacity:0.588608;fill-rule:evenodd;stroke-width:0.595382;stroke-linecap:round;stroke-linejoin:round;paint-order:stroke fill markers"
       d="m -126.93729,178.98206 h -39.1852 v 24.132 h 39.1852 z"
       sodipodi:nodetypes="ccccc" />
    <path
       id="rect2168-1"
       style="fill:#4d4d4d;fill-opacity:0.588608;fill-rule:evenodd;stroke-width:0.842;stroke-linecap:round;stroke-linejoin:round;paint-order:stroke fill markers"
       d="m 19.592602,187.1343 h -39.185204 v 48.26424 h 39.185204 z"
       sodipodi:nodetypes="ccccc" />
    <path
       id="path1514-4-1-9"
       style="fill:#ffffff;fill-opacity:1;fill-rule:evenodd;stroke-width:0.826;stroke-linecap:round;stroke-linejoin:round;paint-order:stroke fill markers"
       d="m 453.72424,62.742967 -13.06225,7.541661 v 12.06593 42.231532 12.06541 l -2.61173,1.50792 -15.67449,-9.04958 V 118.78812 92.908048 80.842118 l -10.44949,6.03271 v 48.264232 l 26.12398,15.0828 13.06122,-7.54114 V 76.317848 l 2.61276,-1.50843 5.22501,-3.01636 -5.22449,-9.049571 z m 15.67502,9.050091 -13.06226,7.54166 -5.1e-4,-10e-4 v 66.363362 l -2.61225,1.50791 -5.22448,3.01687 5.22397,9.04906 h 5.1e-4 l 13.06174,-7.54114 v -12.06593 -23.43216 h 18.28622 10.44949 V 86.874828 Z m 0,12.06645 15.67294,9.04854 V 105.7822 H 466.78598 V 85.367938 Z" />
    <rect
       style="fill:#00ff15;fill-opacity:0.552573;fill-rule:evenodd;stroke-width:0.826;stroke-linecap:round;stroke-linejoin:round;paint-order:stroke fill markers"
       id="rect7867"
       width="17.787771"
       height="18.355488"
       x="344.93814"
       y="105.7822" />
    <path
       id="rect1798-2-5-3"
       style="fill:#008000;fill-opacity:0.588608;fill-rule:evenodd;stroke-width:0.826;stroke-linecap:round;stroke-linejoin:round;paint-order:stroke fill markers"
       d="m 346.83176,174.84099 7.38891,-7.3889 29.8622,29.86219 -7.38891,7.38891 z" />
    <path
       id="rect7867-4"
       style="fill:#00ff15;fill-opacity:0.552573;fill-rule:evenodd;stroke-width:0.826;stroke-linecap:round;stroke-linejoin:round;paint-order:stroke fill markers"
       d="m 359.56901,98.39299 -7.38869,7.38921 10.5456,10.54561 V 105.7822 h 4.2323 z" />
    <path
       id="path1514-4-1-9-8-1"
       style="fill:#5f5f5f;fill-opacity:1;fill-rule:evenodd;stroke-width:0.826;stroke-linecap:round;stroke-linejoin:round;paint-order:stroke fill markers"
       d="m 492.26866,168.82277 -13.06225,7.54166 v 12.06593 42.23153 12.06541 l -0.51211,0.29559 -13.57437,-7.83725 v -10.31771 -25.88008 -12.06593 h -4.19974 l -10.4495,6.03271 v 48.26424 l 26.12399,15.0828 h 4.19975 l 13.06121,-7.54114 v -66.36288 l 2.61276,-1.50843 5.22501,-3.01636 -5.22449,-9.04957 -5.2e-4,-5.2e-4 -4.19922,5.2e-4 z m 15.67501,9.05009 -13.06225,7.54166 -5.2e-4,-0.001 v 66.36339 l -2.61224,1.50792 -5.22449,3.01687 5.22397,9.04906 h 5.2e-4 4.19923 5.1e-4 l 13.06174,-7.54114 v -12.06593 -23.43217 h 14.08648 v 0.0961 l 0.0961,-0.0961 h 4.10362 v 0.0961 l 10.54561,-10.54561 -0.0961,-0.0961 v -18.81126 l -26.12243,-15.08177 z m 2.09962,13.27878 13.57333,7.83621 v 8.64185 l -4.2323,4.2323 h -9.85418 v -20.41425 z"
       sodipodi:nodetypes="ccccccccccccccccccccccccccccccccccccccccccccccccccccc" />
    <path
       id="path1514-4-1-9-8-3"
       style="fill:#ffffff;fill-opacity:1;fill-rule:evenodd;stroke-width:0.826;stroke-linecap:round;stroke-linejoin:round;paint-order:stroke fill markers"
       d="m 496.46839,168.82277 5.3e-4,5.1e-4 5.22448,9.04958 -5.22501,3.01635 -2.61275,1.50844 v 66.36287 l -13.06122,7.54115 -26.12399,-15.0828 v -48.26424 l 10.4495,-6.03271 v 12.06593 25.88008 10.31771 l 15.67449,9.04958 2.61173,-1.50792 v -12.06541 -42.23153 -12.06593 z m 15.67503,9.05009 26.12243,15.08177 v 18.81125 l 0.0961,0.0961 -10.54561,10.54561 v -0.0961 h -18.28621 v 23.43216 12.06593 l -13.06174,7.54115 h -5.2e-4 l -5.22397,-9.04906 5.22449,-3.01687 2.61225,-1.50792 v -66.36339 l 5.1e-4,0.001 z m 0,12.06645 -2.61328,1.50843 V 211.862 h 14.05392 l 4.2323,-4.2323 v -8.64185 z" />
    <path
       id="path1514-4-1-6"
       style="fill:#ffffff;fill-opacity:1;fill-rule:evenodd;stroke-width:0.826;stroke-linecap:round;stroke-linejoin:round;paint-order:stroke fill markers"
       d="m 515.1495,416.78623 -13.06225,7.54166 v 12.06593 42.23153 12.0654 l -2.61173,1.50793 -15.67449,-9.04958 v -10.31771 -25.88007 -12.06593 l -10.44949,6.0327 v 48.26423 l 26.12398,15.0828 13.06122,-7.54114 v -66.36286 l 2.61276,-1.50844 10.45001,-6.03322 z m 15.67502,9.0501 -13.06226,7.54165 -5.1e-4,-9.9e-4 v 66.36338 l -2.61225,1.50791 -10.44897,6.03323 10.44897,6.0327 13.06174,-7.54114 V 493.7071 470.27496 h 18.28622 10.44949 v -29.35688 z m 0,12.06643 15.67294,9.04855 v 12.87416 h -18.28622 v -20.41426 z" />
    <path
       id="path1514-4-1-6-2"
       style="fill:#ffffff;fill-opacity:1;fill-rule:evenodd;stroke-width:0.826;stroke-linecap:round;stroke-linejoin:round;paint-order:stroke fill markers"
       d="m 876.50924,658.99853 -13.0622,7.54166 v 12.06593 42.23153 12.0654 l -2.6118,1.50792 -15.6745,-9.04957 V 715.04368 689.16363 677.0977 l -10.4495,6.0327 v 48.26422 l 26.124,15.08281 13.0612,-7.54115 v -66.36285 l 2.6128,-1.50844 10.45,-6.03322 z m 15.675,9.0501 -13.0622,7.54165 -6e-4,-9.9e-4 v 66.36338 l -2.6122,1.50791 -10.449,6.03323 10.449,6.0327 13.0617,-7.54114 V 735.9194 712.48727 h 18.2863 10.4494 v -29.35688 z m 0,12.06643 15.673,9.04855 v 12.87416 h -18.2863 v -20.41426 z" />
    <rect
       style="fill:#ff0000;fill-opacity:0.588608;fill-rule:evenodd;stroke-width:0.439523;stroke-linecap:round;stroke-linejoin:round;paint-order:stroke fill markers"
       id="rect851"
       width="10.449486"
       height="43.039268"
       x="249.97482"
       y="704.33679" />
    <g
       id="g12669"
       transform="translate(-13.84322,-16.517479)">
      <g
         id="g15169">
        <path
           id="path1514-8-9-9-7"
           style="fill:#3a007d;fill-opacity:0.995526;fill-rule:evenodd;stroke-width:0.826;stroke-linecap:round;stroke-linejoin:round;paint-order:stroke fill markers"
           d="m 104.6353,544.70618 -13.062205,7.54165 v 63.34601 l -7.8378,-4.52479 v -54.29634 l -20.8979,12.06533 v 48.26423 l 41.798505,24.13186 13.06119,-7.54114 V 598.1949 h 28.7357 v -29.35686 z m 13.06179,25.64029 7.83771,4.52479 v 12.87415 h -7.83771 z"
           sodipodi:nodetypes="cccccccccccccccccc" />
        <path
           id="rect1154"
           style="fill:#f5a7ff;fill-opacity:0.4;fill-rule:evenodd;stroke-width:0.826;stroke-linecap:round;stroke-linejoin:round;paint-order:stroke fill markers"
           d="m 62.837395,611.06903 v 6.03322 l 22.2064,12.82041 19.592085,11.31145 13.06122,-7.54114 -15.67449,-9.04906 -9.143635,-8.29562 -9.14363,-5.27926 z" />
        <path
           id="rect1154-5"
           style="fill:#ffffff;fill-opacity:0.15;fill-rule:evenodd;stroke-width:0.826;stroke-linecap:round;stroke-linejoin:round;paint-order:stroke fill markers"
           d="m 62.837395,568.83804 20.8979,-12.06533 v 54.29634 l -20.8979,-2e-5 z"
           sodipodi:nodetypes="ccccc" />
        <path
           id="rect1154-5-4"
           style="fill:#ffffff;fill-opacity:0.15;fill-rule:evenodd;stroke-width:0.826;stroke-linecap:round;stroke-linejoin:round;paint-order:stroke fill markers"
           d="m 117.6971,570.34647 v 63.34652 l -15.6746,-9.04906 -9.143525,-8.29564 -1.30588,-0.75445 v -63.34601 l 15.674905,9.04913 z"
           sodipodi:nodetypes="cccccccc" />
        <path
           id="rect1154-5-4-2"
           style="fill:#ffffff;fill-opacity:0.15;fill-rule:evenodd;stroke-width:0.826;stroke-linecap:round;stroke-linejoin:round;paint-order:stroke fill markers"
           d="m 125.5348,574.87126 h 20.898 v 23.32365 l -20.898,-1e-5 z"
           sodipodi:nodetypes="ccccc" />
        <path
           id="path1514-4-1-6-2-9"
           style="fill:#ffffff;fill-opacity:1;fill-rule:evenodd;stroke-width:0.826;stroke-linecap:round;stroke-linejoin:round;paint-order:stroke fill markers"
           d="m 104.6358,544.70618 -13.062205,7.54166 v 12.06593 42.23153 12.0654 l -2.6118,1.50792 -15.6745,-9.04957 v -10.31773 -25.88004 -12.06593 l -10.4495,6.0327 v 48.26422 l 26.124,15.08281 13.061205,-7.54115 v -66.36285 l 2.6128,-1.50844 10.45,-6.03322 z m 15.675,9.05011 -13.0622,7.54166 -6e-4,-9.9e-4 v 66.36338 l -2.6122,1.50791 -10.449005,6.03323 10.449005,6.0327 13.0617,-7.54115 v -12.06597 -23.43214 h 18.2863 10.4494 v -29.35686 z m 0,12.06642 15.673,9.04855 v 12.87416 h -18.2863 v -20.41426 z" />
      </g>
    </g>
  </g>
</svg>
