<?xml version="1.0" encoding="UTF-8" standalone="no"?>
<!-- Created with Inkscape (http://www.inkscape.org/) -->

<svg
   width="94.044891mm"
   height="96.527985mm"
   viewBox="0 0 94.044891 96.527985"
   version="1.1"
   id="svg5"
   xmlns="http://www.w3.org/2000/svg"
   xmlns:svg="http://www.w3.org/2000/svg">
  <defs
     id="defs2" />
  <g
     id="layer1"
     transform="translate(-346.30289,-297.23043)">
    <path
       id="path1514-4-1-0"
       style="fill:#ffffff;fill-opacity:1;fill-rule:evenodd;stroke-width:0.826;stroke-linecap:round;stroke-linejoin:round;paint-order:stroke fill markers"
       d="m 309.023,221.36426 -13.06225,7.54166 v 12.06593 42.23153 12.06541 l -2.61173,1.50792 -15.67449,-9.04958 v -10.31771 -25.88007 -12.06593 l -10.44949,6.0327 v 48.26423 l 26.12398,15.08281 13.06122,-7.54114 v -66.36286 l 2.61276,-1.50844 10.45001,-6.03322 z m 15.67502,9.0501 -13.06225,7.54166 -5.2e-4,-0.001 v 66.36338 l -2.61225,1.50791 -10.44897,6.03323 10.44897,6.0327 13.06174,-7.54114 v -12.06596 -23.43215 h 18.28622 10.44949 v -29.35687 z m 0,12.06644 15.67294,9.04855 v 12.87415 h -18.28622 v -20.41426 z" />
    <path
       id="path1514-4-1-0-8"
       style="fill:#4d4d4d;fill-opacity:1;fill-rule:evenodd;stroke-width:0.826;stroke-linecap:round;stroke-linejoin:round;paint-order:stroke fill markers"
       d="m 388.10086,297.23044 -13.06225,7.54165 v 12.06593 42.23154 9.04802 l -7.83673,-4.52427 v -10.31772 -25.88007 -12.06593 h -10.4495 l -10.44949,6.03271 v 48.26423 l 41.79797,24.13186 h 10.44949 l 13.06173,-7.54114 v -12.06593 -23.43216 h 18.28623 10.44949 V 321.3623 l -41.79745,-24.13186 z m 23.51122,25.64081 7.83674,4.52427 v 12.87415 h -7.83674 z" />
    <path
       id="path1514-4-1-0-9"
       style="fill:#ffffff;fill-opacity:1;fill-rule:evenodd;stroke-width:0.826;stroke-linecap:round;stroke-linejoin:round;paint-order:stroke fill markers"
       d="m 398.55035,297.23044 -13.06225,7.54166 v 12.06593 42.23153 12.06541 l -2.61173,1.50792 -15.67449,-9.04958 V 353.2756 327.39553 315.3296 l -10.44949,6.0327 v 48.26423 l 26.12398,15.08281 13.06122,-7.54114 v -66.36286 l 2.61276,-1.50844 10.45001,-6.03322 z m 15.67502,9.0501 -13.06225,7.54166 -5.2e-4,-0.001 v 66.36338 l -2.61225,1.50791 -10.44897,6.03323 10.44897,6.0327 13.06174,-7.54114 v -12.06596 -23.43215 h 18.28622 10.44949 V 321.3623 Z m 0,12.06644 15.67294,9.04855 v 12.87415 h -18.28622 v -20.41426 z" />
  </g>
</svg>
