<!-- Created with Inkscape (http://www.inkscape.org/) -->
<svg width="604.68mm" height="631.61mm" version="1.1" viewBox="0 0 604.68 631.61" xmlns="http://www.w3.org/2000/svg">
 <g transform="translate(204.52 179.56)" fill="#000000" stroke="#ffffff" stroke-linecap="round" stroke-linejoin="round" stroke-width=".038">
  <path transform="matrix(.26458 0 0 .26458 -204.52 -179.56)" d="m1042.5 0.011719-100.23 173.61 100.23 173.61h200.47l100.23-173.61-100.23-173.61zm-426 303.82-75.176 130.21 75.176 130.21h150.35l75.178-130.21-75.178-130.21zm375.88 130.21-150.35 260.42h-300.71l-150.35 260.42 150.35 260.42-150.35 260.42 150.35 260.42h300.71l150.35 260.42h300.71l150.35-260.42h300.71l150.35-260.42-150.35-260.42 150.35-260.42-150.35-260.42h-300.71l-150.35-260.42zm977.3 130.21-75.176 130.21 75.176 130.21h150.35l75.176-130.21-75.176-130.21zm-1849.3 442.71-120.28 208.33 120.28 208.34h240.57l120.28-208.34-120.28-208.33zm1804.2 0-120.28 208.33 120.28 208.34h240.57l120.28-208.34-120.28-208.33zm-1784.2 555.56-100.23 173.61 100.23 173.61h200.47l100.23-173.61-100.23-173.61zm1353.2 260.42-100.23 173.61 100.23 173.61h200.47l100.23-173.61-100.23-173.61zm-426 303.82-75.176 130.21 75.176 130.21h150.35l75.176-130.21-75.176-130.21z" style="paint-order:stroke fill markers"/>
  <path transform="matrix(.21167 0 0 .21167 -194.19 100.97)" d="m402.29 454.21-300.71-1e-5 -150.35-260.42 150.35-260.42 300.71 1.5e-5 150.35 260.42z" style="paint-order:stroke fill markers"/>
 </g>
</svg>
